<?xml version="1.0" encoding="UTF-8" standalone="no"?>
<!-- Created with Inkscape (http://www.inkscape.org/) -->

<svg
   version="1.1"
   id="svg776"
   width="63.626251"
   height="102.18224"
   viewBox="0 0 63.626251 102.18224"
   sodipodi:docname="johnnie_walker_amarillo.svg"
   inkscape:version="1.2.1 (9c6d41e410, 2022-07-14)"
   xmlns:inkscape="http://www.inkscape.org/namespaces/inkscape"
   xmlns:sodipodi="http://sodipodi.sourceforge.net/DTD/sodipodi-0.dtd"
   xmlns="http://www.w3.org/2000/svg"
   xmlns:svg="http://www.w3.org/2000/svg">
  <defs
     id="defs780" />
  <sodipodi:namedview
     id="namedview778"
     pagecolor="#ffffff"
     bordercolor="#000000"
     borderopacity="0.25"
     inkscape:showpageshadow="2"
     inkscape:pageopacity="0.0"
     inkscape:pagecheckerboard="0"
     inkscape:deskcolor="#d1d1d1"
     showgrid="false"
     inkscape:zoom="0.75202156"
     inkscape:cx="755.29749"
     inkscape:cy="382.96774"
     inkscape:window-width="1920"
     inkscape:window-height="1017"
     inkscape:window-x="-8"
     inkscape:window-y="-8"
     inkscape:window-maximized="1"
     inkscape:current-layer="g782" />
  <g
     inkscape:groupmode="layer"
     inkscape:label="Image"
     id="g782"
     transform="translate(-21.308996,-15.609954)">
    <path
       style="fill:#d4aa00;stroke-width:0.0804596"
       d="m 35.468436,108.25069 c -0.746854,-0.15057 -1.820966,-0.56115 -2.299849,-0.8791 -0.543727,-0.36102 -0.805721,-0.77793 -1.449975,-2.30743 l -0.538807,-1.27914 h -0.378266 -0.378256 l -0.249326,-0.5431 c -0.352159,-0.76712 -0.435252,-1.20185 -0.329523,-1.72403 0.04769,-0.23556 0.134402,-0.68879 0.192704,-1.0072 0.133276,-0.727937 0.167433,-0.782627 0.365249,-0.584797 0.08693,0.0869 0.186004,0.157987 0.220251,0.157987 0.03422,0 0.286683,-0.216907 0.56098,-0.482007 0.548647,-0.53025 0.576112,-0.68884 0.133688,-0.77184 l -0.273513,-0.0513 0.203803,-0.24221 c 0.302366,-0.35934 0.407744,-0.66095 0.879041,-2.51588 0.76578,-3.013972 1.378362,-4.641257 2.264086,-6.014377 0.36921,-0.572388 0.471771,-0.643516 0.554058,-0.384272 0.02777,0.08733 0.156888,0.234649 0.287025,0.327318 0.130147,0.09266 0.236509,0.211277 0.236369,0.263587 -1.61e-4,0.05234 -0.147029,0.312333 -0.326423,0.577852 -1.077322,1.594534 -2.288653,4.902137 -2.438348,6.658062 -0.02173,0.25445 -0.01071,0.46264 0.02445,0.46264 0.03511,0 0.181165,-0.37112 0.324512,-0.82471 0.493694,-1.5622 1.305358,-3.476198 2.072827,-4.887946 0.421005,-0.77443 0.825036,-1.471096 0.897867,-1.548175 0.12578,-0.133114 0.152874,-0.132351 0.541493,0.01527 0.839302,0.31892 1.746546,0.430394 3.027458,0.371998 0.867373,-0.03954 1.186793,-0.02938 1.186793,0.03775 0,0.0505 -0.331112,0.475392 -0.735808,0.944144 -0.404685,0.468757 -1.088689,1.325976 -1.520006,1.904935 -1.882548,2.526954 -2.92353,4.329814 -3.193441,5.530664 -0.127129,0.565587 -0.156818,0.621847 -0.30275,0.573737 -0.240825,-0.0794 -0.455252,-0.0484 -0.588739,0.0851 -0.104835,0.10483 -0.08542,0.1328 0.164334,0.23717 0.15575,0.0651 0.309058,0.16019 0.340689,0.21136 0.04215,0.0682 0.107334,0.0604 0.243752,-0.0289 0.166869,-0.10933 0.191218,-0.10911 0.233934,0.002 0.08773,0.22863 0.0492,0.35875 -0.165147,0.55738 -0.200935,0.18622 -0.210261,0.2279 -0.166879,0.74532 0.145047,1.73018 0.879657,3.50063 1.645818,3.96655 0.61894,0.37639 1.133379,0.80902 1.213434,1.02048 0.04537,0.11986 0.100308,0.44735 0.122077,0.72779 0.05916,0.76284 -0.02324,0.81975 -1.173462,0.81015 -0.497849,-0.003 -1.140523,-0.0551 -1.428162,-0.11298 z m 0.187383,-1.381 c 0.02927,-0.0293 -0.08723,-0.11618 -0.258864,-0.19305 -0.171668,-0.0768 -0.376638,-0.24893 -0.455465,-0.38238 -0.184243,-0.3119 -0.453842,-0.43808 -0.71987,-0.33694 -0.398539,0.15153 -0.184062,0.43841 0.482445,0.64533 0.177011,0.0549 0.358046,0.12751 0.402292,0.16121 0.0677,0.0516 0.233562,0.10688 0.449236,0.14977 0.02585,0.006 0.07093,-0.0147 0.100205,-0.044 z m -1.992996,-1.11084 c 0.08591,-0.065 0.24003,-0.11928 0.342499,-0.12069 0.244057,-0.003 0.514823,-0.15096 0.45487,-0.24798 -0.100308,-0.16233 -0.663349,-0.0812 -0.916842,0.13207 -0.333827,0.2809 -0.224737,0.49695 0.119473,0.2366 z m -1.026585,-1.10486 c 0.134876,-0.13487 0.120388,-0.58948 -0.02797,-0.8763 -0.06841,-0.13239 -0.302982,-0.43783 -0.52116,-0.67874 -0.400149,-0.44187 -0.459759,-0.57127 -0.499308,-1.08405 -0.01438,-0.18702 -0.06228,-0.2816 -0.14241,-0.2816 -0.08903,0 -0.127109,0.11196 -0.145168,0.42699 -0.02122,0.37062 0.0159,0.49809 0.28121,0.96552 0.168125,0.29619 0.386686,0.73318 0.485685,0.97109 0.265123,0.63708 0.378296,0.74787 0.569079,0.55709 z m 36.20764,2.28559 c -0.894425,-0.92782 -1.213524,-1.41688 -1.473838,-2.25891 -0.217786,-0.70445 -0.237586,-0.74876 -0.52624,-1.17725 -0.107057,-0.15893 -0.146223,-0.31009 -0.114658,-0.44254 0.139494,-0.58518 0.138437,-0.64118 -0.01317,-0.6952 -0.280646,-0.10001 -0.431407,-0.29305 -0.431407,-0.55233 0,-0.29882 -0.181961,-0.56667 -1.284544,-1.890947 -1.141972,-1.37159 -2.149462,-2.83412 -2.881767,-4.18337 -0.316343,-0.582852 -0.902667,-1.92904 -0.902667,-2.072505 0,-0.09317 0.527146,-0.341293 0.725012,-0.341293 0.207102,0 0.375299,0.27167 0.554412,0.895493 0.591021,2.058505 1.756054,3.976605 3.484187,5.736415 0.742469,0.756067 0.716442,0.678697 -0.289167,-0.85992 -1.16329,-1.77988 -1.726916,-2.91314 -2.50172,-5.030166 -0.18359,-0.501622 -0.362189,-0.858963 -0.453813,-0.908007 -0.0831,-0.04449 -0.151094,-0.108116 -0.151094,-0.141424 0,-0.03328 0.239136,-0.217775 0.531402,-0.409939 0.636629,-0.41856 0.836789,-0.712253 1.358753,-1.993686 0.212756,-0.52233 0.435724,-1.021115 0.495464,-1.108402 0.05976,-0.08733 0.109188,-0.358841 0.109879,-0.603447 6.32e-4,-0.244606 0.03361,-0.495877 0.07314,-0.558376 0.07344,-0.116009 0.237344,0.355328 0.529169,1.52168 0.64039,2.559516 2.185348,6.769887 3.380501,9.212667 0.667363,1.364007 0.801131,1.548017 1.206895,1.660047 0.186816,0.0516 0.313687,0.14713 0.361152,0.27197 0.102324,0.26914 0.443633,0.42304 1.434883,0.64702 1.408735,0.31831 2.293118,0.3336 3.068426,0.053 0.09699,-0.0351 0.09286,-0.0102 -0.0198,0.11831 -0.224171,0.25589 -0.86598,0.56905 -1.296543,0.63265 -0.317683,0.0469 -0.36577,0.0734 -0.250536,0.13788 0.250967,0.14044 1.124889,0.0188 1.517284,-0.2111 0.243458,-0.14268 0.453335,-0.20328 0.659874,-0.19055 0.330018,0.0203 0.341939,7.9e-4 0.476038,-0.77793 0.03249,-0.18836 0.148891,-0.40867 0.291283,-0.55106 0.215432,-0.21543 0.272196,-0.23278 0.617642,-0.18884 0.209235,0.0266 0.507145,0.0583 0.662032,0.0706 0.431638,0.0341 0.507337,0.11296 0.458411,0.47774 -0.09649,0.71906 -1.487271,2.54139 -2.373797,3.11027 -0.480182,0.30812 -1.024253,0.49938 -2.431046,0.85457 -1.230986,0.3108 -1.688939,0.48053 -1.686149,0.62495 0.001,0.0547 0.03359,0.23617 0.07244,0.40324 0.06579,0.28351 0.05332,0.31686 -0.187694,0.50068 -0.336901,0.25697 -1.750037,0.92547 -1.956356,0.92547 -0.09619,0 -0.432988,-0.28293 -0.842301,-0.70752 z m 1.266919,-1.39679 c 0.21886,-0.13952 0.669483,-0.32159 1.001382,-0.40454 0.663427,-0.16583 1.206904,-0.37859 1.206904,-0.47252 0,-0.0332 -0.168688,-0.01 -0.374858,0.0524 -0.206175,0.0621 -0.566464,0.11281 -0.800639,0.11281 -0.983633,0 -1.560138,0.28647 -1.560138,0.77523 0,0.24666 0.0505,0.24059 0.527349,-0.0635 z m -1.764004,-0.7319 c -0.02666,-0.0996 -0.04899,-0.36853 -0.04959,-0.59772 -10e-4,-0.44463 -0.136676,-0.66953 -0.403399,-0.66953 -0.40367,0 -0.465322,0.43097 -0.151455,1.05868 0.151315,0.30262 0.242656,0.37225 0.502788,0.38326 0.117441,0.006 0.139615,-0.0331 0.101679,-0.17469 z m -40.106645,0.89041 c -0.01237,-0.43317 -0.02475,-0.45907 -0.234377,-0.49083 -0.121694,-0.0184 -0.004,-0.0353 0.261501,-0.0375 0.311865,-0.003 0.411547,0.0156 0.281602,0.0515 -0.174675,0.0482 -0.207364,0.11335 -0.248381,0.49485 l -0.04718,0.43933 z m 0.711028,-0.0657 c 0,-0.26553 0.03571,-0.48277 0.07928,-0.48277 0.04367,0 0.175158,0.14483 0.292306,0.32184 0.117138,0.17701 0.223954,0.32183 0.237365,0.32183 0.01338,0 0.10579,-0.14482 0.205281,-0.32183 0.0995,-0.17701 0.210421,-0.32184 0.24652,-0.32184 0.03613,0 0.06027,0.2263 0.05353,0.50288 -0.01177,0.48776 -0.01358,0.49199 -0.06328,0.14079 l -0.0512,-0.36206 -0.157974,0.26099 c -0.198541,0.32802 -0.28444,0.32811 -0.482578,7.9e-4 l -0.158145,-0.26149 -0.02476,0.34196 c -0.03752,0.519 -0.176407,0.40817 -0.176407,-0.1411 z M 60.622649,92.339587 c -0.09245,-0.344914 -0.05232,-0.613335 0.1086,-0.726027 0.208481,-0.146025 0.402302,-0.619184 0.41017,-1.001271 0.006,-0.275434 0.05986,-0.349184 0.570952,-0.77723 0.853558,-0.714847 1.589013,-1.782781 1.59344,-2.313816 0.001,-0.138618 -0.06791,-0.257632 -0.199386,-0.343808 -0.298111,-0.195329 -0.255605,-0.426062 0.261491,-1.419344 l 0.462646,-0.888695 v -0.793827 c 0,-0.624797 0.02133,-0.77614 0.100309,-0.710736 0.286099,0.237003 0.448752,1.801078 0.268171,2.578756 -0.06429,0.276724 -0.05434,0.306252 0.116776,0.349211 0.121705,0.03059 0.231137,0.157314 0.313495,0.363136 0.17223,0.430453 0.160449,0.558246 -0.08109,0.880661 -0.300938,0.401588 -0.707656,1.237853 -0.917425,1.886322 -0.233792,0.72272 -0.673359,1.57003 -0.950896,1.832939 -0.223753,0.211962 -1.847628,1.264762 -1.950801,1.264762 -0.03189,0 -0.07979,-0.08149 -0.106413,-0.181033 z M 41.261148,90.533238 c -2.42e-4,-0.03544 0.06097,-0.235503 0.135931,-0.444695 0.07495,-0.209193 0.117892,-0.398793 0.09538,-0.421318 -0.02254,-0.02254 -0.322228,0.0129 -0.665995,0.07868 -1.225075,0.234396 -2.725996,0.12091 -3.507439,-0.265204 l -0.442535,-0.218665 0.02254,-0.350859 c 0.03371,-0.523783 -0.221116,-0.764319 -0.398137,-0.375799 -0.10936,0.240041 -0.206608,0.193781 -0.358919,-0.170735 -0.109499,-0.262072 -0.103694,-0.290161 0.129945,-0.629757 0.327711,-0.476307 0.379486,-0.49511 0.511734,-0.185862 0.150921,0.352922 0.491863,0.661627 0.958654,0.868038 0.683581,0.302278 2.444987,0.402058 2.602359,0.147422 0.07726,-0.12507 -0.06539,-0.186631 -0.796755,-0.343797 -0.721361,-0.155009 -1.134327,-0.33053 -1.060139,-0.450587 0.02726,-0.04418 0.630884,-0.07707 1.415385,-0.07707 1.916282,0 3.121517,-0.221398 3.587293,-0.658969 0.295343,-0.277471 0.238108,-0.436861 -0.210403,-0.585834 -0.217404,-0.07223 -0.415833,-0.184836 -0.440944,-0.250293 -0.05141,-0.13402 0.03511,-0.176585 0.886578,-0.435965 0.315336,-0.09608 0.704569,-0.282816 0.864937,-0.415015 0.245595,-0.202438 0.291603,-0.29063 0.291603,-0.55893 0,-0.707787 0.19697,-0.913784 1.689662,-1.767038 0.686982,-0.392707 1.426734,-1.09853 1.891734,-1.804981 0.174766,-0.265514 0.755446,-1.333621 1.290399,-2.37357 1.834559,-3.566381 2.692434,-4.741704 4.148524,-5.68364 0.545437,-0.352843 1.359014,-0.728164 1.359014,-0.62694 0,0.02481 -0.117671,0.141392 -0.2615,0.259095 -1.596258,1.306329 -2.845558,3.033189 -4.727211,6.534248 -0.874325,1.626772 -1.169449,2.042783 -2.358405,3.32441 -0.777851,0.838486 -1.174358,1.337314 -1.391551,1.750623 -0.267477,0.509004 -0.369775,0.620336 -0.856818,0.932532 -0.56084,0.359484 -0.783456,0.669068 -0.784149,1.090433 -5.8e-4,0.342723 -0.298626,0.686136 -0.899689,1.036626 -0.873982,0.50961 -1.031051,0.693019 -1.031051,1.203987 v 0.419938 l -0.732991,0.692576 c -0.747065,0.705855 -0.95636,0.871378 -0.957064,0.756912 z m 8.699268,-0.340244 C 53.832117,81.89519 59.539382,70.888973 64.041473,61.95209 L 63.75498,61.832386 c -0.285907,-0.119459 -0.358244,-0.234993 -0.206035,-0.329065 0.119714,-0.07398 0.09729,-0.201149 -0.03552,-0.201149 -0.161556,0 -0.226005,-0.131745 -0.162441,-0.332024 0.04829,-0.152002 0.08854,-0.162751 0.387382,-0.103245 0.183438,0.03653 0.688018,0.06486 1.121286,0.06296 0.878561,-0.0039 1.201292,-0.141123 1.248244,-0.530912 0.01347,-0.111871 0.113046,-0.286586 0.221268,-0.388251 0.111111,-0.104386 0.196216,-0.275058 0.195511,-0.392088 -8.69e-4,-0.144111 0.100401,-0.294699 0.332491,-0.494347 0.304097,-0.261611 0.324984,-0.303467 0.235171,-0.471284 -0.156355,-0.292149 0.0051,-0.381921 0.396315,-0.220429 0.178539,0.07369 0.472616,0.195037 0.6535,0.269646 0.261812,0.108002 0.360015,0.1162 0.481661,0.04024 0.213732,-0.133478 0.222002,-0.128216 0.2794,0.177712 0.06499,0.346665 -0.06681,0.596184 -0.348004,0.65868 -0.120419,0.02676 -0.278917,0.06476 -0.352219,0.08444 -0.07335,0.01968 -0.190029,0.177591 -0.259379,0.350907 -0.06932,0.173318 -0.2184,0.363492 -0.331221,0.422608 -0.112827,0.05911 -0.267668,0.231112 -0.34408,0.382211 -0.177522,0.351021 -0.870138,0.7672 -1.485185,0.89242 l -0.461188,0.09389 c -5.845588,10.112397 -9.915518,19.711107 -15.157319,28.358976 -0.05664,0.05956 -0.136203,0.07083 -0.204243,0.02875 z M 34.258252,77.257454 c -0.947326,-1.078948 -1.073921,-3.368102 -0.307529,-5.560954 1.33526,-3.82058 4.28207,-6.264975 8.705326,-7.221113 0.557981,-0.120615 0.998313,-0.245504 0.978523,-0.277531 -0.01982,-0.03202 -0.201136,-0.07684 -0.402964,-0.09959 -0.503564,-0.05676 -1.361178,-0.494074 -1.610837,-0.821391 -0.2317,-0.30377 -0.36878,-0.702601 -0.286984,-0.834956 0.03743,-0.06059 0.219677,-0.01935 0.574633,0.13003 0.45184,0.190148 0.624987,0.218261 1.324395,0.215031 1.021695,-0.0047 1.594194,-0.19926 2.920933,-0.992555 0.526794,-0.314984 1.016735,-0.572698 1.088751,-0.572698 0.07335,0 0.153659,0.09053 0.182623,0.205931 0.0492,0.196049 0.07002,0.180781 0.433752,-0.318139 0.659989,-0.905295 1.173262,-2.104419 1.409489,-3.292951 l 0.04507,-0.226992 0.281613,0.247256 c 0.343044,0.301191 0.883289,0.580986 1.570131,0.813178 0.490886,0.165945 3.83712,0.884766 4.094748,0.879612 0.219627,-0.0044 -0.100205,-0.144458 -1.668202,-0.730652 -2.454697,-0.91766 -2.925101,-1.114651 -3.375301,-1.413477 -1.283891,-0.852195 -3.879176,-5.06123 -4.767636,-7.732136 -0.646588,-1.943781 -0.875471,-4.133803 -0.514822,-4.925916 0.250655,-0.55054 1.038538,-1.269859 1.206704,-1.101698 0.02163,0.0217 -0.0666,0.251289 -0.196136,0.510222 -0.539993,1.079221 -0.546946,1.988942 -0.02324,3.045504 0.370601,0.747728 1.580574,2.10847 2.982498,3.354108 1.799565,1.598964 2.576179,2.410627 2.576179,2.692459 0,0.135519 -0.432745,0.14379 -0.932979,0.01783 -0.445592,-0.112205 -0.520194,-0.05102 -0.267536,0.21945 0.33926,0.363172 0.817058,0.583661 1.648402,0.760683 0.794723,0.169223 1.66609,0.522111 1.678144,0.679622 0.004,0.04734 -0.486521,0.110247 -1.190898,0.152837 -1.164156,0.07039 -1.217349,0.06652 -1.935127,-0.140804 -0.405944,-0.117252 -0.788596,-0.213183 -0.850339,-0.213183 -0.21659,0 0.444054,0.573521 0.94474,0.820154 0.457083,0.225152 0.551554,0.243307 1.045982,0.201016 0.298936,-0.02558 0.833176,-0.101599 1.187195,-0.168955 0.709378,-0.134959 1.891613,-0.159712 2.453339,-0.05136 0.427675,0.08249 0.512909,0.04821 0.400822,-0.161221 C 55.550488,55.13628 55.232591,54.980791 54.587692,54.8188 54.159213,54.711167 53.957584,54.602084 53.577005,54.271995 53.315514,54.045203 52.982601,53.787233 52.837193,53.698727 52.637385,53.577114 52.531122,53.419885 52.402174,53.055046 52.181278,52.430072 50.9457,50.103901 50.388533,49.264043 50.150253,48.904859 49.521542,48.154412 48.991419,47.596384 48.17611,46.73817 48.008377,46.517242 47.903181,46.163002 c -0.157945,-0.531854 -0.157612,-0.784173 0.001,-0.845086 0.229004,-0.08788 0.640511,0.414739 1.680918,2.053083 0.20671,0.325507 0.390944,0.576724 0.409405,0.558262 0.08542,-0.0854 -0.40219,-1.598825 -0.698733,-2.168826 -0.418761,-0.804905 -0.880723,-1.319888 -1.504665,-1.677337 -0.26972,-0.154519 -0.491469,-0.308099 -0.492787,-0.341289 -0.006,-0.139579 0.425864,-0.04162 0.974409,0.221264 0.323192,0.154887 0.642956,0.280173 0.710584,0.278415 0.223702,-0.0059 -0.643006,-0.714891 -1.050871,-0.859755 -0.217726,-0.07733 -0.38364,-0.177285 -0.368699,-0.222125 0.01499,-0.04483 0.2052,-0.15247 0.422786,-0.23918 0.62706,-0.249888 1.858422,-0.210969 3.404104,0.107599 0.681107,0.140375 1.254302,0.239306 1.27376,0.219846 0.08179,-0.08184 -0.159656,-0.369807 -0.498122,-0.593992 -0.199838,-0.13237 -0.63368,-0.359473 -0.964087,-0.504677 -0.330407,-0.145202 -0.580267,-0.29713 -0.555245,-0.337615 0.02666,-0.04306 0.417352,-0.04951 0.94145,-0.01554 0.813567,0.05272 0.886196,0.04631 0.789814,-0.06981 -0.106113,-0.127848 -0.617251,-0.31841 -1.130292,-0.421394 l -0.272166,-0.05463 0.332208,-0.292988 c 0.389122,-0.343196 0.574191,-0.747985 0.574191,-1.255924 0,-0.221834 0.03632,-0.364655 0.09286,-0.364655 0.11293,0 0.474377,0.384526 1.550421,1.649429 1.68585,1.98175 2.555626,3.287131 3.591899,5.390815 1.050208,2.13198 1.731465,4.224912 2.082125,6.396565 0.09649,0.597416 0.202866,1.212934 0.236459,1.36782 l 0.06107,0.281609 0.247888,-0.484843 c 0.475122,-0.929289 1.26235,-3.954909 1.366881,-5.253472 0.04639,-0.576272 0.03994,-0.603344 -0.299872,-1.264356 l -0.347269,-0.675475 0.104639,-0.790628 c 0.116656,-0.88134 0.0501,-1.152073 -0.34741,-1.412508 -0.207484,-0.135947 -0.519459,-0.821914 -0.419445,-0.922258 0.03209,-0.0322 0.434526,-0.07087 0.894295,-0.08592 1.18468,-0.03878 1.523981,0.0859 2.206719,0.810909 0.288634,0.306508 0.59569,0.59583 0.682364,0.642937 0.08663,0.0471 0.436608,0.113783 0.77766,0.148159 0.748222,0.07542 0.867775,0.135378 1.552051,0.778266 l 0.53466,0.502322 -0.123043,0.237937 c -0.214315,0.414434 -0.112332,1.000309 0.222506,1.278191 0.09659,0.0802 0.121826,0.01744 0.159433,-0.397351 0.06911,-0.762123 0.30795,-0.847147 0.626375,-0.222983 0.253562,0.497039 0.879115,1.064909 1.533912,1.392492 0.843696,0.422087 0.910259,0.35145 0.175782,-0.186555 -0.694709,-0.50888 -0.937023,-0.782814 -1.25566,-1.419506 l -0.202724,-0.40509 0.239175,-0.137264 c 0.331694,-0.190368 0.219487,-0.299685 -0.307609,-0.299685 -0.639777,0 -1.555613,-0.448611 -1.555613,-0.761995 0,-0.01358 0.126728,-0.04847 0.281613,-0.07753 0.231005,-0.04335 0.281611,-0.08832 0.281611,-0.250335 0,-0.190926 -0.24818,-0.519345 -0.39245,-0.519345 -0.03883,0 -0.115681,0.05431 -0.170774,0.12069 -0.23501,0.283178 -0.429153,0.0028 -0.391838,-0.566045 0.0091,-0.131205 -0.01106,-0.389704 -0.04367,-0.574441 -0.0506,-0.286201 -0.03613,-0.348305 0.09749,-0.419827 0.124462,-0.06661 0.187956,-0.04954 0.30758,0.08263 0.386445,0.427007 1.152133,0.512437 1.497489,0.167078 0.224488,-0.224484 0.117329,-0.338824 -0.317528,-0.338824 -0.328879,0 -0.398781,-0.03396 -0.632775,-0.307322 -0.156627,-0.182987 -0.56087,-0.465478 -0.99915,-0.698234 -0.964177,-0.512039 -1.308066,-0.836391 -1.573157,-1.483747 -0.116665,-0.284921 -0.297709,-0.643988 -0.402312,-0.797926 -0.22352,-0.32893 -0.19534,-0.413928 0.137229,-0.413928 0.167725,0 0.315065,0.07546 0.468895,0.240131 l 0.224315,0.240131 0.05403,-0.421167 c 0.02968,-0.23164 0.106527,-0.511681 0.170672,-0.622315 0.108554,-0.187251 0.113334,-0.167794 0.06921,0.281611 -0.05463,0.55611 0.07354,1.469881 0.227776,1.624147 0.08663,0.08663 0.139886,0.0809 0.301664,-0.03242 0.108059,-0.07569 0.267839,-0.138925 0.355066,-0.140533 0.120879,-0.0022 0.201809,-0.123395 0.340306,-0.509523 0.180279,-0.502598 0.180472,-0.507844 0.02455,-0.663793 -0.08642,-0.08645 -0.157191,-0.229301 -0.157191,-0.317433 0,-0.08814 -0.07244,-0.205461 -0.160922,-0.260733 -0.09638,-0.06022 -0.160913,-0.187635 -0.160913,-0.317959 0,-0.130071 -0.06832,-0.265279 -0.169878,-0.336444 -0.162311,-0.113691 -0.152803,-0.121539 0.213973,-0.176541 0.581979,-0.08727 0.933875,0.02979 1.102725,0.366856 l 0.141083,0.281611 -0.221539,0.05082 c -0.206126,0.04729 -0.201618,0.05149 0.06479,0.06035 0.421648,0.01402 0.540908,0.146525 0.722034,0.802232 0.171798,0.621915 0.388619,1.101535 0.670109,1.482267 0.09276,0.125503 0.224558,0.379381 0.292821,0.564176 0.07133,0.193209 0.206387,0.377005 0.31772,0.432512 0.106481,0.05309 0.238502,0.180419 0.293382,0.282955 0.07456,0.139233 0.157463,0.180429 0.327651,0.162724 0.360932,-0.03756 0.527993,0.147651 0.643359,0.713235 0.122127,0.598737 0.465856,1.193366 1.275962,2.207363 1.128773,1.41287 1.903614,2.745985 2.015473,3.467617 0.04559,0.293733 0.02243,0.362317 -0.211741,0.629042 -0.656809,0.748062 -1.697411,0.984692 -3.977943,0.904574 -2.031237,-0.07136 -5.370912,-0.554116 -6.770229,-0.978648 -0.21489,-0.06519 -0.413189,-0.118928 -0.440654,-0.119408 -0.02747,-4.83e-4 -0.07415,0.213395 -0.103821,0.475273 -0.10586,0.935732 -0.605289,3.135203 -1.134226,4.995133 -0.295748,1.039945 -0.549079,1.902611 -0.562963,1.917039 -0.01388,0.01443 -0.363446,-0.08119 -0.776805,-0.212492 -1.104908,-0.350958 -1.817274,-0.452011 -3.165351,-0.44902 -1.203513,0.0028 -1.796579,0.105652 -1.868192,0.324412 -0.07747,0.236502 0.490444,0.306064 2.552106,0.312632 1.882185,0.006 2.101591,0.02147 2.655177,0.187098 2.12603,0.636141 3.939813,0.964471 4.846654,0.877335 0.593517,-0.05704 0.470876,0.133087 -0.396698,0.614931 -0.884999,0.491522 -1.169005,0.749701 -1.444813,1.313429 -0.176406,0.360566 -0.202665,0.505421 -0.17381,0.958696 0.02887,0.453888 0.0657,0.561216 0.245363,0.715759 0.116243,0.1 0.255716,0.19659 0.309934,0.214661 0.06479,0.02159 0.07968,0.108266 0.04337,0.252731 -0.07948,0.316487 -0.348204,0.391728 -0.955132,0.267383 -0.502126,-0.102877 -0.503534,-0.103948 -0.477698,-0.364679 0.02928,-0.295572 -0.07144,-0.450124 -0.406255,-0.623261 -0.250163,-0.129365 -0.544944,-0.08367 -0.544944,0.08449 0,0.05743 0.07244,0.196475 0.160923,0.308993 0.08854,0.112516 0.160913,0.22333 0.160913,0.246252 0,0.02292 -0.226288,-0.04601 -0.502871,-0.153185 -0.488019,-0.189101 -0.864948,-0.498718 -0.864948,-0.710489 0,-0.05705 -0.06679,-0.164208 -0.148497,-0.238125 -0.139181,-0.125955 -0.161446,-0.124212 -0.354653,0.02775 -0.11338,0.08918 -0.290948,0.163894 -0.394595,0.166023 -0.139624,0.0028 -0.06862,0.06575 0.274188,0.24267 0.544823,0.28122 0.545626,0.285183 0.307005,1.516143 -0.162412,0.837829 -0.272346,1.133876 -0.421036,1.133876 -0.178569,0 -0.614161,-0.566211 -0.927414,-1.205507 l -0.321987,-0.657131 -0.249377,0.388215 c -0.137159,0.213517 -0.39708,0.532272 -0.577601,0.708343 l -0.328223,0.32013 -1.506496,0.004 c -1.27231,0.0035 -1.637506,0.03312 -2.349249,0.19133 -1.046786,0.232663 -2.841433,0.848102 -4.177488,1.432585 -0.557843,0.244036 -1.322011,0.569824 -1.698164,0.723975 -0.376154,0.154149 -0.718986,0.314051 -0.761855,0.355336 -0.21351,0.205618 2.104751,-0.402083 3.549665,-0.930496 0.670371,-0.245155 1.243133,-0.445737 1.272822,-0.445737 0.103602,0 -0.949509,1.211909 -1.543016,1.77568 -0.638017,0.606055 -1.741807,1.372087 -2.598072,1.803064 -1.261505,0.634941 -3.315419,1.263781 -5.913814,1.810617 -3.604868,0.75865 -4.556751,1.124041 -5.469045,2.099354 -0.419013,0.447954 -0.64533,0.901174 -0.720263,1.442338 l -0.0501,0.362068 0.238139,-0.50248 c 0.33734,-0.711801 0.896851,-1.217198 1.888886,-1.706194 0.817945,-0.403186 1.951113,-0.775886 2.623909,-0.863008 0.43013,-0.05569 0.451711,-0.08098 -0.631848,0.740333 -1.110592,0.84182 -2.143305,1.881415 -2.686326,2.704258 -0.703734,1.06637 -0.965636,1.811135 -0.97935,2.784943 -0.004,0.27647 -0.03048,0.502765 -0.05906,0.502875 -0.02857,7.8e-5 -0.169614,-0.133736 -0.313343,-0.297437 z M 57.790321,54.175729 c 0.16397,-0.163974 0.161092,-0.426045 -0.007,-0.611481 -0.183872,-0.203172 -0.402172,-0.184037 -0.554613,0.04861 -0.105272,0.160671 -0.110662,0.229168 -0.03008,0.382185 0.173186,0.328701 0.380127,0.39193 0.591373,0.180682 z M 57.02414,51.394197 c 0.106354,-0.189478 0.104362,-0.233265 -0.01922,-0.421845 -0.238934,-0.364672 -0.697375,-0.215568 -0.697375,0.226818 0,0.17812 0.306089,0.462652 0.464819,0.432082 0.07325,-0.0141 0.186498,-0.120772 0.251762,-0.237055 z m -0.02797,-1.89951 c -0.19845,-0.529762 -0.728775,-1.186291 -2.016206,-2.495991 -0.796554,-0.810331 -1.461242,-1.510712 -1.477077,-1.556403 -0.0159,-0.04569 0.0837,-0.223101 0.221267,-0.394247 0.29775,-0.370513 0.30932,-0.430204 0.06901,-0.356041 -0.364201,0.112412 -1.347705,0.608066 -1.347705,0.679207 0,0.04027 0.353024,0.352579 0.784481,0.694009 1.334577,1.056076 2.5297,2.157931 3.117824,2.874507 0.545668,0.664839 0.757438,0.846095 0.648389,0.554959 z M 39.95469,74.027211 c -0.819341,-0.906923 -0.695653,-2.252506 0.296573,-3.226303 l 0.341776,-0.335429 1.921041,-0.353092 c 1.056575,-0.194201 1.932178,-0.341957 1.945791,-0.32835 0.01358,0.0136 -0.293121,0.255072 -0.68162,0.536586 -0.388498,0.281512 -0.961079,0.766239 -1.272421,1.07717 -0.571393,0.570658 -1.560622,1.966138 -1.840917,2.596943 -0.1904,0.428493 -0.34601,0.435607 -0.710223,0.03249 z M 63.119833,59.397964 c -0.166698,-0.166695 0.185198,-0.364781 0.818718,-0.460866 0.454325,-0.06891 0.423087,0.08265 -0.06872,0.333471 -0.352833,0.179938 -0.647423,0.229978 -0.750003,0.127395 z m 5.495534,-1.196566 c -0.145017,-0.174743 -1.318257,-0.761293 -1.522763,-0.761293 -0.08863,0 -0.308142,0.05885 -0.487889,0.130761 -0.179746,0.07192 -0.340517,0.117049 -0.357279,0.100285 -0.0168,-0.01676 0.07153,-0.269586 0.196206,-0.561832 0.148226,-0.347468 0.202121,-0.570132 0.155731,-0.643392 -0.09326,-0.147292 -0.09135,-0.884382 0.003,-1.033026 0.06077,-0.09607 0.101091,-0.08249 0.230926,0.07785 0.135005,0.166726 0.175692,0.178969 0.287196,0.08642 0.07144,-0.0593 0.129915,-0.173659 0.129915,-0.254136 0,-0.08048 0.03683,-0.169061 0.08179,-0.196857 0.135347,-0.08365 -0.007,-0.217532 -0.182906,-0.17162 -0.117501,0.03073 -0.138889,0.0182 -0.07605,-0.04458 0.166908,-0.166916 0.90347,-0.180531 1.197598,-0.02213 0.771322,0.415388 0.801766,1.565035 0.05443,2.057707 -0.126505,0.0834 -0.289208,0.151883 -0.361556,0.152173 -0.07233,3.23e-4 -0.190863,0.09105 -0.26335,0.201681 l -0.131797,0.20115 0.343807,0.0077 c 0.520093,0.01168 1.120764,0.176239 1.220034,0.33423 0.189747,0.30198 -0.287547,0.615005 -0.516712,0.338878 z m -8.636831,-9.139184 c -0.02767,-0.13829 -0.0503,-0.301222 -0.0503,-0.362069 0,-0.149864 0.474045,-0.146502 0.531713,0.0039 0.06951,0.18111 -0.19515,0.603955 -0.380852,0.608505 -0.02767,6.31e-4 -0.07295,-0.111917 -0.100608,-0.250205 z m -0.410853,-1.538796 c -0.140993,-0.33086 -0.0091,-0.512289 0.313524,-0.431313 0.164766,0.04134 0.207967,0.101426 0.207967,0.28921 0,0.151982 -0.05583,0.266897 -0.15563,0.320307 -0.224084,0.119927 -0.242687,0.110869 -0.365861,-0.178204 z m -0.592059,-3.328602 c -0.255896,-0.153353 -0.373044,-0.185392 -0.43851,-0.119929 -0.1424,0.142401 -0.535023,0.103763 -0.789924,-0.07774 -0.228028,-0.162372 -0.246117,-0.163255 -0.643208,-0.03136 -0.276873,0.09197 -0.434949,0.109338 -0.490384,0.05391 -0.120881,-0.120876 -0.38058,-1.285851 -0.383759,-1.721411 -0.002,-0.207591 0.03552,-0.401087 0.0823,-0.42999 0.166336,-0.102796 0.471149,0.04847 0.91489,0.45403 0.400683,0.366194 0.478714,0.405839 0.712537,0.361973 0.171698,-0.03221 0.321504,-0.0079 0.432796,0.06995 0.154576,0.108266 0.173861,0.105226 0.210039,-0.03311 0.04467,-0.170661 0.368899,-0.359658 0.762529,-0.444426 0.316393,-0.06813 0.329834,0.0059 0.09075,0.499796 -0.17216,0.355645 -0.175229,0.518108 -0.02506,1.32737 0.03078,0.165949 0.02415,0.301382 -0.01489,0.300963 -0.03894,-4.01e-4 -0.227998,-0.09492 -0.420048,-0.210017 z m -1.222257,-2.245273 c -0.357148,-0.11095 -1.043517,-0.618727 -1.043517,-0.772006 0,-0.04267 0.15707,0.01446 0.349029,0.12696 0.670966,0.393212 1.253276,0.200587 1.266716,-0.419023 0.004,-0.184811 0.112286,-0.488788 0.279419,-0.784485 0.150078,-0.265518 0.328647,-0.600433 0.396828,-0.744254 0.09729,-0.205299 0.17349,-0.261495 0.354423,-0.261495 0.126746,0 0.273261,-0.05159 0.325589,-0.114646 0.120054,-0.144655 0.201839,-1.496923 0.0995,-1.645451 -0.04859,-0.07049 -0.291309,-0.123759 -0.668701,-0.146739 -0.652494,-0.03973 -1.034996,-0.151748 -1.034996,-0.303107 0,-0.05415 -0.07002,-0.161783 -0.1555,-0.239177 -0.08552,-0.0774 -0.136524,-0.190151 -0.113333,-0.250566 0.05785,-0.150826 -0.432846,-0.437579 -0.74947,-0.437954 -0.230554,-2.42e-4 -0.265736,0.03435 -0.38218,0.376102 -0.154021,0.452004 -0.157663,0.768528 -0.01347,1.17245 0.103752,0.290705 0.101127,0.301725 -0.07194,0.301725 -0.0988,0 -0.326272,-0.106251 -0.505546,-0.236117 -0.26477,-0.191797 -0.336785,-0.30129 -0.383658,-0.583335 -0.06549,-0.394303 -0.210946,-0.712687 -0.39544,-0.865804 -0.182845,-0.151743 -0.154746,-0.245783 0.07344,-0.245783 0.184033,0 0.192282,-0.01568 0.106896,-0.203078 -0.191558,-0.420444 -0.795206,-0.316316 -0.9994,0.172392 -0.11262,0.269541 -0.109418,0.330362 0.04124,0.784997 0.08984,0.27105 0.194125,0.601439 0.231762,0.734199 0.03762,0.132759 0.147551,0.27712 0.244256,0.320803 0.207444,0.09371 0.224648,0.22243 0.0492,0.368053 -0.108923,0.09039 -0.172996,0.05089 -0.457727,-0.282212 -0.439135,-0.513747 -0.715433,-0.622716 -1.414227,-0.557771 -0.514057,0.04778 -0.561303,0.03854 -0.68157,-0.133146 -0.148105,-0.211455 -0.112447,-0.319178 0.105641,-0.319178 0.0834,0 0.203219,-0.07368 0.266299,-0.163741 0.0978,-0.139639 0.0989,-0.237353 0.007,-0.663794 -0.137149,-0.639118 -0.138748,-1.424896 -0.003,-1.603213 0.145972,-0.192133 0.521684,-0.320376 0.775367,-0.264658 0.264155,0.05802 0.64368,-0.07759 0.64368,-0.230006 0,-0.134608 -0.241752,-0.209622 -0.683913,-0.212211 -0.359352,-0.0022 -1.052029,-0.296009 -1.266284,-0.537294 -0.07696,-0.08663 -0.162623,-0.271335 -0.190451,-0.410479 -0.04196,-0.209753 -0.01002,-0.293501 0.186426,-0.490011 0.76618,-0.766183 2.733492,-0.463163 4.707282,0.725053 0.880089,0.529812 0.82906,0.325432 -0.158227,-0.633714 -0.999702,-0.971211 -0.995184,-0.960997 -0.781715,-1.767765 0.06791,-0.256614 0.162593,-0.846743 0.210433,-1.3114 0.114082,-1.10811 0.180229,-1.272744 0.585266,-1.456706 1.273911,-0.578584 4.46703,0.441744 6.125242,1.957261 0.854244,0.780724 1.558761,1.984973 1.562907,2.671519 0.002,0.295554 -0.05132,0.367592 -0.829615,1.12644 -0.543475,0.529866 -1.005064,1.07547 -1.332503,1.575062 l -0.500988,0.76437 0.255926,0.215047 c 0.153336,0.128842 0.515114,0.284986 0.902486,0.389507 0.355599,0.09596 0.689224,0.190835 0.74138,0.210851 0.05655,0.02171 0.09215,-0.03703 0.08814,-0.145616 -0.01156,-0.311371 0.241792,-0.257675 0.808516,0.171344 0.464247,0.351446 0.903653,0.866814 0.912094,1.069789 0.001,0.03319 -0.155984,0.06035 -0.349704,0.06035 -0.35555,0 -0.595942,-0.154653 -0.494791,-0.318317 0.02857,-0.04619 3.23e-4,-0.08399 -0.06268,-0.08399 -0.06298,0 -0.207192,-0.07284 -0.320376,-0.161872 l -0.205794,-0.161873 -0.279006,0.16462 c -0.374514,0.220969 -0.963805,0.279966 -1.634268,0.163616 -1.097471,-0.190442 -1.540398,-0.501913 -2.237552,-1.573452 -0.517356,-0.795175 -1.090621,-1.3193 -1.857648,-1.698382 -0.696982,-0.344466 -0.948371,-0.32908 -0.436537,0.02672 0.469045,0.326054 0.828176,0.718654 1.409871,1.541239 0.534701,0.756143 1.116981,1.318782 1.616177,1.561644 l 0.334845,0.162906 -0.04427,0.450066 c -0.06207,0.631124 -0.297498,1.218676 -0.652615,1.628571 -0.529419,0.611112 -1.520227,1.952754 -1.575371,2.133202 -0.110569,0.361821 -0.535435,0.48089 -1.095321,0.306967 z m -2.510634,-1.560728 c 0.144514,-0.136177 0.310889,-0.247596 0.369714,-0.247596 0.118254,0 0.420913,0.301013 0.361948,0.35998 -0.02042,0.02044 -0.252546,0.05922 -0.515788,0.08618 l -0.478642,0.04903 z m 9.762294,-0.891275 c -0.006,-0.22076 0.11593,-0.466314 0.193026,-0.389215 0.02676,0.02676 -0.004,0.17054 -0.06952,0.319509 -0.108992,0.249813 -0.118595,0.255229 -0.123506,0.0697 z m -7.973333,-0.55928 c 0,-0.106262 0.07032,-0.179444 0.204899,-0.213219 0.297297,-0.07462 0.309743,-0.0054 0.03552,0.197288 -0.235543,0.174143 -0.240391,0.174466 -0.240391,0.01594 z"
       id="path786"
       sodipodi:nodetypes="csscccssssssscssssscsssssssssssssssssssssssccssssssssscssssssssssssssssssssssssssssssscssssssssssssssssssssssssssssssssssssssscsscssssssssscsccssssssssscsssssssssscsssscssssssssssssssssssssssssssssscscccssssssssssssssssssssscccsssssssssssssscsssssssssssssssssssssssssssssssssssssssssssssssssscssssssscssscsssssssscssssssscssssssssssssssssssscsssssssssssssscssssssssssssssssssssssssssssssssssssssssssssscsscsssssssssssscsssssscssssssssssssssssssssssscssssssssssssssssssssssssscscssssssscssssssssssssssssssssscsssssssssssssscssssssssssssssssssssssssssssssssssscsssssssssscssssssscsssssssscsssssssss" />
  </g>
</svg>
