<?xml version="1.0" encoding="UTF-8" standalone="no"?>
<!-- Created with Inkscape (http://www.inkscape.org/) -->

<svg
   version="1.1"
   id="svg776"
   width="625.20605"
   height="1004.0631"
   viewBox="0 0 625.20605 1004.0631"
   sodipodi:docname="johnnie_walker_nuevo_logo.svg"
   inkscape:version="1.2.1 (9c6d41e410, 2022-07-14)"
   xmlns:inkscape="http://www.inkscape.org/namespaces/inkscape"
   xmlns:sodipodi="http://sodipodi.sourceforge.net/DTD/sodipodi-0.dtd"
   xmlns="http://www.w3.org/2000/svg"
   xmlns:svg="http://www.w3.org/2000/svg">
  <defs
     id="defs780" />
  <sodipodi:namedview
     id="namedview778"
     pagecolor="#ffffff"
     bordercolor="#000000"
     borderopacity="0.25"
     inkscape:showpageshadow="2"
     inkscape:pageopacity="0.0"
     inkscape:pagecheckerboard="0"
     inkscape:deskcolor="#d1d1d1"
     showgrid="false"
     inkscape:zoom="0.75202156"
     inkscape:cx="511.95341"
     inkscape:cy="457.43369"
     inkscape:window-width="1366"
     inkscape:window-height="705"
     inkscape:window-x="-8"
     inkscape:window-y="-8"
     inkscape:window-maximized="1"
     inkscape:current-layer="g782" />
  <g
     inkscape:groupmode="layer"
     inkscape:label="Image"
     id="g782"
     transform="translate(-264.65308,-48.853682)">
    <path
       style="fill:#000000"
       d="m 358,1051.5017 c -9.28226,-1.8714 -22.63195,-6.9742 -28.58374,-10.9259 -6.7577,-4.4869 -10.01388,-9.6686 -18.02112,-28.678 L 304.69861,996 h -4.70127 -4.70126 l -3.09869,-6.75 c -4.37678,-9.53414 -5.40953,-14.93733 -4.09553,-21.4272 0.59274,-2.92754 1.67051,-8.56065 2.39506,-12.51803 1.65641,-9.04714 2.08096,-9.72689 4.53955,-7.2683 1.07994,1.07994 2.31174,1.96353 2.73733,1.96353 0.42559,0 3.5631,-2.69574 6.97225,-5.99054 6.81884,-6.59013 7.16024,-8.56121 1.6615,-9.59278 l -3.39934,-0.63772 2.53291,-3.0102 c 3.75798,-4.46611 5.06772,-8.21467 10.92522,-31.26876 9.51753,-37.45929 17.13106,-57.68408 28.13929,-74.75 4.58879,-7.11395 5.86348,-7.99803 6.88612,-4.77598 0.34459,1.08571 1.94992,2.91635 3.56739,4.06809 1.61747,1.15174 2.93943,2.62594 2.93768,3.27598 -0.002,0.65005 -1.8274,3.88191 -4.05699,7.18191 -13.38955,19.81774 -28.44461,60.9265 -30.30512,82.75 -0.26961,3.1625 -0.13293,5.75 0.30374,5.75 0.43667,0 2.25161,-4.6125 4.0332,-10.25 6.13593,-19.41593 16.22379,-43.20414 25.76224,-60.75 5.23243,-9.625 10.25405,-18.28371 11.15916,-19.24157 1.56329,-1.65441 1.90009,-1.64488 6.73004,0.19035 10.43129,3.96358 21.70702,5.34905 37.62691,4.62328 10.78009,-0.49145 14.75,-0.36514 14.75,0.46931 0,0.62796 -4.1152,5.90843 -9.1449,11.73438 -5.02969,5.82595 -13.53088,16.47995 -18.89152,23.67555 -23.3974,31.40633 -36.33529,53.81321 -39.68984,68.738 -1.57997,7.02947 -1.94896,7.72875 -3.76275,7.13081 -2.99306,-0.9867 -5.65814,-0.60153 -7.31719,1.05752 -1.30286,1.30286 -1.06187,1.65065 2.04245,2.94772 1.93578,0.80882 3.8412,1.99095 4.23427,2.62695 0.52344,0.84695 1.33409,0.75052 3.02952,-0.36037 2.07397,-1.35892 2.37649,-1.35606 2.9074,0.0274 1.09042,2.8416 0.61127,4.45878 -2.05255,6.92752 -2.49723,2.31436 -2.61318,2.83222 -2.07404,9.2631 1.80279,21.50369 10.93282,43.50775 20.4551,49.29845 7.69257,4.678 14.08625,10.0549 15.08132,12.6831 0.56403,1.4897 1.24675,5.56 1.51717,9.0454 0.73561,9.481 -0.28919,10.1884 -14.58444,10.069 -6.1875,-0.052 -14.175,-0.6836 -17.75,-1.4042 z m 2.3289,-17.1639 c 0.36423,-0.3643 -1.08351,-1.4439 -3.2172,-2.3992 -2.13369,-0.9552 -4.68107,-3.0939 -5.66084,-4.7525 -2.28984,-3.8764 -5.64052,-5.4447 -8.9469,-4.1876 -4.95321,1.8832 -2.28759,5.4488 5.99604,8.0204 2.2,0.6829 4.45,1.5847 5,2.0038 0.84103,0.6409 2.90275,1.3282 5.58333,1.8613 0.32084,0.064 0.88134,-0.182 1.24557,-0.5462 z m -24.77003,-13.806 c 1.06762,-0.8075 2.98321,-1.4825 4.25687,-1.5 3.03318,-0.042 6.39841,-1.8763 5.65325,-3.082 -1.24694,-2.0176 -8.24441,-1.0097 -11.39495,1.6414 -4.14897,3.4911 -2.79313,6.1763 1.48483,2.9406 z M 322.8,1006.8 c 1.6763,-1.6763 1.49622,-7.32649 -0.3471,-10.89108 -0.85091,-1.64547 -3.7657,-5.44162 -6.47732,-8.43589 -4.97332,-5.49171 -5.71411,-7.10003 -6.20564,-13.47303 -0.17928,-2.32447 -0.77374,-3.5 -1.76994,-3.5 -1.10668,0 -1.57977,1.39154 -1.80423,5.30692 -0.26407,4.60634 0.19731,6.1905 3.495,12 2.08959,3.68119 4.80597,9.11231 6.03641,12.06914 3.29498,7.91804 4.70165,9.29514 7.07282,6.92394 z m 450.00825,28.4066 c -11.1164,-11.5315 -15.08226,-17.6099 -18.31763,-28.0751 -2.70673,-8.75527 -2.9529,-9.30599 -6.54038,-14.6315 -1.33057,-1.97519 -1.81735,-3.85401 -1.42498,-5.5 1.7337,-7.27297 1.72053,-7.96906 -0.16345,-8.64048 C 742.87384,977.11646 741,974.71747 741,971.49505 c 0,-3.714 -2.2614,-7.043 -15.96494,-23.50185 C 710.84197,930.94635 698.32034,912.76913 689.21883,896 685.28715,888.75605 678,872.02491 678,870.24182 678,869.08414 684.55163,866 687.01087,866 c 2.574,0 4.66445,3.37653 6.89051,11.12968 7.34562,25.58412 21.82515,49.4234 43.3034,71.29527 9.22774,9.39685 8.90437,8.43522 -3.59396,-10.68762 -14.45802,-22.12124 -21.46308,-36.20617 -31.09272,-62.51753 -2.28173,-6.23443 -4.50145,-10.6757 -5.64026,-11.28518 C 695.84503,863.38188 695,862.59091 695,862.17691 c 0,-0.414 2.97206,-2.70674 6.60457,-5.09498 7.91235,-5.20207 10.40008,-8.85231 16.88728,-24.77861 2.64429,-6.49182 5.41538,-12.69095 6.15797,-13.77583 0.7426,-1.08487 1.35707,-4.45987 1.36549,-7.5 0.008,-3.04012 0.41762,-6.16302 0.90932,-6.93979 0.91272,-1.44184 2.94987,4.41621 6.57681,18.9123 7.95918,31.8111 27.16071,84.13978 42.01474,114.5 8.29433,16.95283 9.95686,19.2396 14.99997,20.63207 2.32179,0.64108 3.89856,1.82851 4.48851,3.38019 1.27173,3.3449 5.51372,5.25769 17.83356,8.04146 17.50855,3.9562 28.5002,4.14621 38.13611,0.65925 1.20566,-0.4363 1.154,-0.12786 -0.24632,1.4705 -2.78625,3.18032 -10.76292,7.07246 -16.11429,7.86282 -3.94823,0.58313 -4.54599,0.91211 -3.1137,1.71366 3.1191,1.74553 13.98075,0.23438 18.85752,-2.62359 3.02588,-1.77329 5.63437,-2.52656 8.20134,-2.36835 4.10161,0.25278 4.24981,0.0106 5.91654,-9.66847 0.40314,-2.3411 1.85043,-5.07924 3.62014,-6.84895 2.67747,-2.67747 3.38304,-2.89319 7.67646,-2.34696 2.60039,0.33083 6.30298,0.72583 8.22798,0.87779 5.36472,0.42347 6.30554,1.40396 5.69743,5.93771 -1.19868,8.93684 -18.48456,31.58559 -29.50289,38.65607 -5.96793,3.8296 -12.72987,6.2066 -30.21432,10.621 -15.29938,3.8628 -20.99099,5.9723 -20.95636,7.7672 0.0131,0.6801 0.41828,2.9354 0.90035,5.0117 0.81809,3.5236 0.66266,3.9382 -2.33266,6.2229 -4.18725,3.1937 -21.75047,11.502 -24.31468,11.502 -1.19531,0 -5.38136,-3.5162 -10.46862,-8.7934 z m 15.74597,-17.36 c 2.72018,-1.7343 8.32078,-3.997 12.44578,-5.028 8.24544,-2.061 15,-4.7054 15,-5.8726 0,-0.4126 -2.09652,-0.1193 -4.65893,0.6519 -2.56241,0.7711 -7.04026,1.4021 -9.95078,1.4021 -12.22513,0 -19.39029,3.5603 -19.39029,9.6349 0,3.0657 0.62804,2.9902 6.55422,-0.7883 z m -21.92393,-9.0966 c -0.33164,-1.2375 -0.60913,-4.5804 -0.61664,-7.4286 C 765.99908,995.79518 764.31499,993 761,993 c -5.01696,0 -5.78323,5.35619 -1.88238,13.1578 1.88062,3.7611 3.01593,4.6265 6.24901,4.7633 1.45949,0.062 1.73511,-0.4119 1.26366,-2.1711 z M 268.163,1019.8164 c -0.1544,-5.3835 -0.30816,-5.7055 -2.913,-6.1001 -1.5125,-0.2292 -0.05,-0.4392 3.25,-0.4668 3.87604,-0.032 5.11502,0.1942 3.5,0.64 -2.17099,0.5993 -2.57725,1.4088 -3.087,6.1503 l -0.58701,5.4602 z M 277,1019 c 0,-3.3 0.44362,-6 0.98581,-6 0.5422,0 2.177,1.8 3.63289,4 1.45589,2.2 2.78348,4 2.9502,4 0.16672,0 1.31479,-1.8 2.55126,-4 1.23647,-2.2 2.61526,-4 3.06398,-4 0.44872,0 0.74827,2.8125 0.66567,6.25 -0.14568,6.0622 -0.16932,6.1148 -0.78666,1.75 l -0.63647,-4.5 -1.96334,3.2437 c -2.46763,4.0768 -3.5352,4.0779 -5.99773,0.01 l -1.96561,-3.25 -0.3075,4.25 C 278.72553,1027.2041 277,1025.8268 277,1019 Z M 670.63029,853.75 c -1.14882,-4.28679 -0.64978,-7.62294 1.34979,-9.02349 2.59106,-1.81485 5.00003,-7.69555 5.09773,-12.44439 0.0704,-3.42328 0.74368,-4.33979 7.09607,-9.65981 10.60861,-8.88456 19.74915,-22.15739 19.80416,-28.7573 0.0144,-1.72281 -0.84349,-3.20206 -2.47804,-4.27305 -3.70509,-2.42767 -3.17675,-5.29544 3.25,-17.64048 l 5.75,-11.04508 v -9.86622 c 0,-7.76523 0.26551,-9.64627 1.24684,-8.83337 3.55585,2.94554 5.57743,22.38481 3.33304,32.05017 -0.79863,3.43928 -0.6759,3.80631 1.45137,4.34022 1.51258,0.37963 2.87272,1.95515 3.89627,4.51325 2.14057,5.34981 1.99421,6.93819 -1.00849,10.94527 -3.74015,4.9912 -8.79514,15.38478 -11.40228,23.44428 -2.90567,8.98233 -8.36889,19.51321 -11.81821,22.78073 C 693.41759,842.91509 673.2352,856 671.95286,856 c -0.39578,0 -0.99094,-1.0125 -1.32257,-2.25 z M 429.99505,831.29969 c -0.003,-0.43983 0.7575,-2.92697 1.68938,-5.52698 0.93188,-2.60001 1.46526,-4.95635 1.18529,-5.23632 -0.27997,-0.27997 -4.00477,0.15981 -8.27734,0.97729 -15.22593,2.9132 -33.88018,1.50271 -43.59238,-3.29611 l -5.5,-2.71757 0.28059,-4.36067 c 0.41889,-6.50997 -2.74816,-9.49937 -4.94826,-4.67069 -1.35929,2.98332 -2.56795,2.40836 -4.46086,-2.12202 -1.36093,-3.25716 -1.28889,-3.60629 1.61497,-7.82691 4.07294,-5.91982 4.71645,-6.15354 6.36014,-2.31002 1.87579,4.38628 6.11309,8.22306 11.9147,10.78848 8.49587,3.7568 30.38763,4.99696 32.34353,1.83225 0.96071,-1.55447 -0.8123,-2.31952 -9.90259,-4.27292 -8.96547,-1.92658 -14.09803,-4.10805 -13.1759,-5.60009 0.33938,-0.54913 7.841,-0.95741 17.59114,-0.95741 23.81665,0 38.7959,-2.75163 44.58485,-8.19006 3.67075,-3.44849 2.95927,-5.42947 -2.61504,-7.28095 -2.702,-0.89746 -5.16813,-2.29732 -5.48029,-3.11079 -0.63918,-1.6657 0.4366,-2.19471 11.01888,-5.41841 3.91923,-1.19392 8.75673,-3.51505 10.75,-5.15808 3.05229,-2.51595 3.62414,-3.61206 3.62414,-6.94663 0,-8.7968 2.44808,-11.35701 21,-21.96183 8.53825,-4.88072 17.73223,-13.65304 23.51154,-22.43325 2.17212,-3.3 9.38914,-16.575 16.0378,-29.5 22.80091,-44.32493 33.46305,-58.9325 51.5601,-70.63941 C 593.88839,610.9753 604,606.31062 604,607.56864 c 0,0.30826 -1.4625,1.75734 -3.25,3.22018 -19.83917,16.23575 -35.3662,37.69815 -58.75248,81.21118 -10.86648,20.21841 -14.53453,25.38893 -29.31145,41.31765 -9.6676,10.42116 -14.59564,16.6208 -17.295,21.7577 -3.32433,6.32621 -4.59569,7.7099 -10.649,11.58998 -6.97037,4.4679 -9.73723,8.31549 -9.74581,13.55255 -0.007,4.25944 -3.71143,8.5277 -11.18187,12.88368 C 452.95209,799.43533 451,801.71485 451,808.06539 v 5.21923 l -9.1101,8.60769 c -9.28484,8.77278 -11.88605,10.83002 -11.89485,9.40738 z m 108.11923,-4.22875 C 586.23392,723.9413 657.16691,587.14999 713.12134,476.07754 l -3.56067,-1.48774 C 706.00728,473.10509 705.10823,471.66918 707,470.5 c 1.48787,-0.91956 1.20909,-2.5 -0.44098,-2.5 -2.00781,0 -2.80888,-1.6374 -2.01885,-4.12657 0.5996,-1.88918 1.10076,-2.02276 4.81455,-1.28325 2.2799,0.45399 8.55112,0.80609 13.93604,0.78245 10.91912,-0.0479 14.93018,-1.75396 15.51379,-6.59846 0.1675,-1.39041 1.405,-3.56185 2.75,-4.82541 1.38096,-1.29736 2.43871,-3.41856 2.42997,-4.87307 -0.0108,-1.79108 1.24806,-3.66269 4.1324,-6.14403 3.7795,-3.25143 4.03909,-3.77164 2.92284,-5.85736 -1.94324,-3.63098 0.0628,-4.74673 4.92555,-2.73961 2.21908,0.91592 5.87399,2.42401 8.12203,3.35131 3.25401,1.34225 4.47454,1.4442 5.98644,0.5 2.65634,-1.65892 2.75914,-1.59353 3.47244,2.2087 0.80829,4.30856 -0.83012,7.40971 -4.32508,8.18644 -1.49663,0.33261 -3.46657,0.8049 -4.37765,1.04952 -0.91108,0.24462 -2.3617,2.2072 -3.22359,4.36128 -0.86189,2.15408 -2.71441,4.51766 -4.1167,5.25239 -1.4023,0.73474 -3.32668,2.87238 -4.27641,4.75032 -2.20634,4.36268 -10.81457,9.53519 -18.4587,11.09147 l -5.73192,1.16697 c -72.65214,125.68234 -123.23548,244.98032 -188.38341,352.46075 -0.70347,0.74074 -1.69285,0.87992 -2.53848,0.3571 z M 342.95925,666.30081 c -11.7739,-13.40974 -13.34731,-41.86057 -3.82222,-69.11455 16.59545,-47.48426 53.22002,-77.86452 108.19459,-89.74794 6.93489,-1.49906 12.4076,-3.05125 12.16159,-3.4493 -0.24601,-0.39806 -2.49974,-0.95508 -5.00829,-1.23783 -6.25845,-0.70542 -16.91743,-6.14062 -20.02031,-10.2087 -2.87965,-3.77542 -4.58336,-8.73232 -3.56672,-10.37728 0.46536,-0.75296 2.73021,-0.24046 7.14179,1.61608 5.61572,2.36328 7.76769,2.71267 16.46032,2.67251 12.69815,-0.0587 19.81347,-2.4765 36.30298,-12.336 6.54729,-3.91479 12.63648,-7.1178 13.53154,-7.1178 0.91195,0 1.90977,1.12517 2.26975,2.55943 0.61155,2.43659 0.87027,2.24683 5.39093,-3.95402 8.20275,-11.25148 14.58188,-26.15486 17.5179,-40.92659 l 0.56073,-2.82118 3.5,3.07304 c 4.26345,3.74336 10.9779,7.2208 19.51443,10.10661 6.10094,2.06245 47.68981,10.99636 50.89172,10.9323 2.72968,-0.0546 -1.24488,-1.79541 -20.73335,-9.08095 -30.50828,-11.40517 -36.35474,-13.85349 -41.95008,-17.56746 -15.9568,-10.59153 -48.2125,-62.90372 -59.25476,-96.09921 C 474.00566,299.0636 471.16095,271.84482 475.6433,262 c 3.11536,-6.84241 12.90753,-15.7825 14.99754,-13.6925 0.26956,0.26957 -0.82734,3.12315 -2.43756,6.34131 -6.71134,13.41315 -6.79781,24.71967 -0.28949,37.85119 4.60594,9.29318 19.64422,26.20523 37.068,41.68668 C 547.34786,354.05948 557,364.14727 557,367.65004 c 0,1.68431 -5.37832,1.7871 -11.59549,0.2216 -5.53812,-1.39452 -6.46527,-0.63401 -3.32512,2.72746 4.21651,4.5137 10.15487,7.25406 20.48726,9.45418 9.87724,2.1032 20.707,6.4891 20.85682,8.44672 0.045,0.58842 -6.04675,1.37023 -14.80113,1.89954 -14.46871,0.87482 -15.12981,0.82671 -24.05082,-1.75 C 539.52628,387.19229 534.77045,386 534.00301,386 c -2.69183,0 5.51905,7.12803 11.74183,10.19332 5.6808,2.79831 6.85497,3.02396 13,2.49833 3.71534,-0.31781 10.35516,-1.26274 14.75516,-2.09985 8.81646,-1.67736 23.50993,-1.98499 30.49134,-0.63839 5.3154,1.02525 6.37476,0.59916 4.98172,-2.00375 -1.38237,-2.58297 -5.33346,-4.51546 -13.34851,-6.52877 -5.32547,-1.33772 -7.83141,-2.69347 -12.56148,-6.79599 -3.24988,-2.81869 -7.38752,-6.0249 -9.19477,-7.1249 -2.48327,-1.51147 -3.80392,-3.46559 -5.40662,-8 -2.74545,-7.76754 -18.10184,-36.67845 -25.02659,-47.11665 -2.96154,-4.46415 -10.77542,-13.79112 -17.36416,-20.72659 -10.13312,-10.66635 -12.21778,-13.41217 -13.52524,-17.81485 -1.96301,-6.61018 -1.95883,-9.74614 0.014,-10.50319 2.84626,-1.09221 7.96073,5.1546 20.89147,25.51684 2.56907,4.04556 4.85877,7.16783 5.08822,6.93838 1.06137,-1.06137 -4.99853,-19.87107 -8.68417,-26.95535 -5.20455,-10.0038 -10.94616,-16.40429 -18.70082,-20.84687 -3.35221,-1.92044 -6.1083,-3.82922 -6.12466,-4.24172 -0.0688,-1.73477 5.29293,-0.51726 12.11056,2.75 4.0168,1.925 7.99097,3.48213 8.83149,3.46029 2.78029,-0.0722 -7.99156,-8.88506 -13.0608,-10.6855 -2.70605,-0.9611 -4.76811,-2.20342 -4.58235,-2.76071 0.18576,-0.55729 2.55031,-1.89498 5.25455,-2.97265 7.79342,-3.10576 23.09746,-2.62204 42.30809,1.33723 8.4652,1.74466 15.58916,2.97423 15.83102,2.73237 1.01705,-1.01705 -1.98438,-4.59615 -6.19092,-7.38245 -2.48373,-1.64516 -7.87573,-4.46774 -11.98221,-6.2724 -4.10648,-1.80466 -7.21189,-3.69289 -6.90092,-4.19606 0.33074,-0.53514 5.18714,-0.6153 11.70083,-0.19313 10.11154,0.65536 11.01412,0.57556 9.81621,-0.86783 -1.31872,-1.58896 -7.67144,-3.95738 -14.04784,-5.23732 l -3.38256,-0.67898 4.12877,-3.64143 C 559.69994,210.876 562,205.84508 562,199.53212 562,196.77505 562.45182,195 563.15361,195 c 1.40354,0 5.89574,4.77909 19.26937,20.5 20.95275,24.63028 31.76279,40.85426 44.6421,67 13.05253,26.4974 21.51965,52.50952 25.87779,79.5 1.19891,7.425 2.52139,15.075 2.93885,17 l 0.75901,3.5 3.0809,-6.02589 c 5.90511,-11.54972 15.68915,-49.15378 16.98832,-65.29303 0.57654,-7.1622 0.49673,-7.49868 -3.72693,-15.7141 l -4.31607,-8.39518 1.30056,-9.82635 c 1.44979,-10.95377 0.6222,-14.31859 -4.31783,-17.55542 -2.57868,-1.68962 -6.45614,-10.2152 -5.2131,-11.46232 0.39892,-0.40024 5.4006,-0.88079 11.11484,-1.06789 14.72386,-0.48209 18.94088,1.06756 27.42624,10.07842 3.58729,3.80945 7.40364,7.40529 8.48079,7.99076 1.07714,0.58546 5.42651,1.4141 9.66527,1.84141 9.29921,0.93746 10.78508,1.68254 19.28968,9.67271 l 6.64507,6.24313 -1.52923,2.95721 c -2.66359,5.15082 -1.39607,12.43239 2.76533,15.88605 1.20113,0.99684 1.51413,0.21678 1.9816,-4.93849 0.85889,-9.47207 3.82732,-10.5288 7.78489,-2.77134 3.15151,6.17747 10.9261,13.23527 19.06433,17.30666 10.48598,5.24592 11.31324,4.36799 2.18476,-2.31863 -8.63428,-6.32463 -11.64591,-9.72923 -15.60603,-17.64239 l -2.51959,-5.03468 2.97252,-1.70599 C 764.27955,282.35866 762.88498,281 756.33395,281 748.3825,281 737,275.42442 737,271.5295 c 0,-0.1688 1.575,-0.60239 3.5,-0.96352 2.87111,-0.53863 3.5,-1.09767 3.5,-3.11129 C 744,265.08177 740.91557,261 739.12244,261 c -0.48265,0 -1.43775,0.675 -2.12244,1.5 -2.92092,3.51949 -5.33377,0.0339 -4.87001,-7.03511 0.10698,-1.63069 -0.13732,-4.84346 -0.5429,-7.13948 -0.62832,-3.55707 -0.44906,-4.32892 1.21189,-5.21782 1.54688,-0.82787 2.33605,-0.61587 3.82279,1.02697 4.80285,5.30708 14.31927,6.36884 18.6116,2.07652 2.79,-2.79 1.45822,-4.21108 -3.94646,-4.21108 -4.08741,0 -4.95625,-0.42197 -7.86446,-3.81957 -1.94667,-2.27425 -6.97073,-5.78521 -12.41795,-8.67804 -11.98327,-6.3639 -16.25738,-10.3951 -19.55202,-18.44082 -1.45006,-3.54114 -3.70017,-8.00382 -5.00025,-9.91705 C 703.67428,197.05639 704.0245,196 708.15781,196 c 2.08458,0 3.91582,0.93781 5.8277,2.98448 l 2.78792,2.98449 0.67179,-5.23449 c 0.36948,-2.87896 1.32402,-6.35948 2.1212,-7.73448 1.34927,-2.32727 1.40869,-2.08545 0.85988,3.5 -0.67911,6.91165 0.91362,18.26849 2.83093,20.1858 1.07657,1.07657 1.73859,1.00543 3.74923,-0.40288 1.34299,-0.94067 3.3288,-1.72664 4.41291,-1.74661 1.50236,-0.0277 2.50819,-1.53363 4.22955,-6.33263 2.2406,-6.24656 2.243,-6.31176 0.30476,-8.25 C 734.87916,194.87916 734,193.10381 734,192.00847 c 0,-1.09534 -0.9,-2.55358 -2,-3.24054 -1.19859,-0.74853 -2,-2.33203 -2,-3.95177 0,-1.61659 -0.84844,-3.29702 -2.11122,-4.18151 -2.01737,-1.41302 -1.89915,-1.51055 2.65935,-2.19414 7.23307,-1.08466 11.60663,0.37034 13.70526,4.55949 l 1.75338,3.5 -2.75338,0.63169 c -2.56186,0.58774 -2.50583,0.63991 0.80548,0.75 5.24058,0.17422 6.72282,1.82108 8.97393,9.97057 2.1351,7.72951 4.82993,13.69049 8.3284,18.42242 1.15322,1.55982 2.79092,4.71516 3.63932,7.01188 0.88703,2.40131 2.56509,4.68564 3.94883,5.37551 1.32345,0.65981 2.96431,2.24234 3.64634,3.51672 0.92611,1.73046 1.95706,2.24247 4.07218,2.02242 4.48586,-0.46671 6.56216,1.8351 7.99603,8.86448 1.51792,7.44144 5.7899,14.83179 15.85836,27.43431 14.02905,17.55991 23.65924,34.1286 25.04945,43.09743 0.56587,3.65068 0.27894,4.50308 -2.63165,7.81806 -8.16318,9.29735 -21.09631,12.23831 -49.44006,11.24256 -25.24538,-0.8869 -66.75263,-6.88685 -84.14407,-12.16318 -2.67076,-0.81027 -5.13531,-1.47809 -5.47676,-1.48405 -0.34146,-0.006 -0.92212,2.65217 -1.29036,5.90694 -1.31576,11.62978 -7.52291,38.96602 -14.0968,62.08224 -3.67568,12.925 -6.82426,23.6467 -6.99686,23.826 -0.17259,0.17929 -4.51711,-1.00913 -9.65448,-2.64094 -13.73244,-4.36192 -22.58609,-5.61786 -39.34067,-5.58068 -14.95797,0.0332 -22.32894,1.31316 -23.21892,4.03195 -0.96219,2.9394 6.09543,3.80396 31.71892,3.88558 23.39288,0.0745 26.11974,0.26667 33,2.32536 26.42344,7.90631 48.96615,11.98697 60.23684,10.90399 7.37658,-0.70879 5.85225,1.65408 -4.9304,7.6427 -10.99926,6.10891 -14.52901,9.3177 -17.95689,16.32402 -2.1925,4.48131 -2.51889,6.28163 -2.16017,11.9152 0.3592,5.64117 0.81647,6.9751 3.04946,8.89584 1.44479,1.24276 3.17818,2.44332 3.85197,2.66792 0.80491,0.2683 0.98984,1.34558 0.5392,3.14108 -0.98724,3.93348 -4.32761,4.8686 -11.87086,3.32319 -6.24075,-1.27857 -6.2582,-1.29189 -5.93706,-4.53244 0.36406,-3.67354 -0.888,-5.59437 -5.04924,-7.74623 C 670.66369,463.77473 667,464.34271 667,466.43253 c 0,0.71376 0.9,2.44192 2,3.84034 1.1,1.39842 2,2.77567 2,3.06055 0,0.28488 -2.8125,-0.57185 -6.25,-1.90385 -6.06536,-2.35027 -10.75,-6.19836 -10.75,-8.83035 0,-0.70908 -0.83055,-2.04088 -1.84567,-2.95955 -1.7298,-1.56545 -2.0065,-1.54379 -4.40773,0.34501 -1.40913,1.10843 -3.61608,2.03696 -4.90433,2.06342 -1.73531,0.0356 -0.85226,0.81719 3.40773,3.01603 6.77142,3.49515 6.78139,3.5444 3.81567,18.84345 C 648.04711,494.32059 646.68088,498 644.83289,498 c -2.21939,0 -7.6332,-7.03717 -11.52641,-14.98269 l -4.00182,-8.16718 -3.09941,4.82494 c -1.70468,2.65371 -4.93512,6.61537 -7.17876,8.80368 l -4.07935,3.97876 -18.72357,0.0499 c -15.81297,0.0421 -20.3518,0.41179 -29.19776,2.37795 -13.01,2.89168 -35.31483,10.54067 -51.92016,17.80496 -6.93311,3.03301 -16.43065,7.08209 -21.10565,8.99795 -4.675,1.91586 -8.93594,3.9032 -9.46875,4.41631 -2.65366,2.55553 26.15904,-4.9973 44.11722,-11.5647 C 536.98013,511.49294 544.0988,509 544.46774,509 c 1.28766,0 -11.80096,15.06227 -19.17736,22.06912 -7.92965,7.53239 -21.64821,17.05305 -32.29038,22.40948 -15.67867,7.89139 -41.20574,15.70696 -73.5,22.50333 -44.80335,9.42892 -56.63386,13.9702 -67.97234,26.09195 C 346.32,607.64129 343.50712,613.2741 342.57582,620 l -0.6231,4.5 2.95976,-6.24514 c 4.19269,-8.84662 11.14661,-15.12795 23.47612,-21.20548 10.16586,-5.01101 24.24951,-9.64314 32.6114,-10.72593 5.34584,-0.69224 5.61405,-1.00649 -7.85296,9.20127 -13.80313,10.46254 -26.6382,23.38326 -33.38716,33.60997 -8.74643,13.25346 -12.00151,22.50979 -12.17192,34.61281 -0.0484,3.43613 -0.37884,6.24863 -0.73437,6.25 -0.35552,0.001 -2.10798,-1.66214 -3.89434,-3.69669 z M 635.42857,379.42857 c 2.03797,-2.03797 2.00216,-5.29513 -0.0836,-7.59983 -2.28522,-2.52514 -4.99844,-2.28731 -6.89303,0.6042 -1.30842,1.9969 -1.37533,2.84822 -0.37335,4.75 2.15239,4.08527 4.72446,4.87112 7.34994,2.24563 z m -9.52243,-34.57041 c 1.32179,-2.35494 1.29701,-2.89916 -0.23868,-5.24293 C 622.69776,335.0829 617,336.93605 617,342.43426 c 0,2.21376 3.80431,5.75008 5.77711,5.37015 0.90978,-0.17521 2.31784,-1.50102 3.12903,-2.94625 z M 625.55845,321.25 c -2.46634,-6.58417 -9.05755,-14.74387 -25.05845,-31.02153 -9.9,-10.07123 -18.16109,-18.77595 -18.35797,-19.34381 -0.19688,-0.56786 1.04062,-2.77283 2.75,-4.89993 3.70064,-4.60495 3.84448,-5.34682 0.85797,-4.42507 -4.5265,1.39705 -16.75,7.55737 -16.75,8.44155 0,0.50056 4.3875,4.38204 9.75,8.62552 16.58674,13.12549 31.44037,26.81994 38.75,35.72595 6.78185,8.26296 9.41386,10.51573 8.05845,6.89732 z M 413.75773,626.15359 c -10.18332,-11.27171 -8.64607,-27.99535 3.68587,-40.09823 l 4.24779,-4.16889 23.87578,-4.38843 c 13.13167,-2.41364 24.01416,-4.25004 24.1833,-4.08091 0.16913,0.16914 -3.64303,3.17017 -8.47148,6.66897 -4.82844,3.49879 -11.94489,9.52324 -15.81431,13.38767 -7.10162,7.09243 -19.39626,24.43622 -22.87995,32.27623 -2.36639,5.32554 -4.30043,5.41397 -8.827,0.40359 z M 701.66667,444.33333 c -2.07179,-2.07178 2.30175,-4.53369 10.17552,-5.72788 5.64656,-0.8564 5.2584,1.02731 -0.85405,4.14455 -4.38522,2.23638 -8.04652,2.85829 -9.32147,1.58333 z m 68.30159,-14.87157 C 768.16582,427.28995 753.58414,420 751.04243,420 c -1.10107,0 -3.82973,0.73133 -6.06368,1.62518 -2.23395,0.89385 -4.23217,1.45474 -4.44048,1.24642 -0.20832,-0.20832 0.88901,-3.35056 2.43851,-6.98277 1.84229,-4.31851 2.51214,-7.08589 1.93556,-7.99642 -1.15921,-1.83063 -1.13531,-10.99157 0.0335,-12.839 0.75545,-1.19408 1.25644,-1.02518 2.87007,0.96757 1.67794,2.07217 2.18359,2.22433 3.56948,1.07414 0.88804,-0.737 1.61462,-2.15835 1.61462,-3.15855 0,-1.00019 0.45734,-2.10119 1.01631,-2.44665 1.68217,-1.03964 -0.0912,-2.7036 -2.27322,-2.13299 -1.46043,0.38191 -1.72625,0.22623 -0.946,-0.55402 2.07452,-2.07452 11.22889,-2.24373 14.88439,-0.27511 9.58647,5.16266 9.96484,19.4511 0.67722,25.57431 -1.57228,1.03659 -3.59445,1.88768 -4.49369,1.8913 -0.89924,0.004 -2.37212,1.13159 -3.27305,2.50659 l -1.63807,2.5 4.27306,0.096 c 6.46396,0.14521 13.92946,2.1904 15.16325,4.154 2.35822,3.75317 -3.57376,7.6436 -6.42194,4.21176 z M 662.625,315.875 c -0.34375,-1.71875 -0.625,-3.74375 -0.625,-4.5 0,-1.86259 5.8917,-1.82081 6.60839,0.0469 0.86376,2.25093 -2.42543,7.50628 -4.73339,7.56283 -0.34375,0.008 -0.90625,-1.39094 -1.25,-3.10969 z m -5.1064,-19.125 c -1.75222,-4.11212 -0.11308,-6.367 3.89676,-5.3606 2.04777,0.51396 2.58464,1.26059 2.58464,3.59447 0,1.88893 -0.69394,3.31715 -1.93426,3.98095 -2.78506,1.49052 -3.01625,1.37791 -4.54714,-2.21482 z m -7.35838,-41.36968 c -3.18041,-1.90597 -4.63638,-2.30416 -5.45,-1.49054 -1.76984,1.76984 -6.64959,1.28958 -9.8176,-0.96624 -2.83409,-2.01805 -3.05899,-2.02901 -7.99418,-0.38981 -3.44109,1.14295 -5.4058,1.35891 -6.09478,0.66993 -1.50231,-1.50231 -4.7301,-15.98126 -4.76951,-21.39464 -0.0188,-2.58004 0.44143,-4.98491 1.02269,-5.34415 2.06725,-1.27763 5.8556,0.60241 11.37074,5.64294 4.97983,4.55128 5.94972,5.04399 8.85583,4.4988 2.13393,-0.40033 3.99575,-0.0994 5.37895,0.86945 1.92114,1.34562 2.16089,1.30783 2.61051,-0.4115 0.55467,-2.12107 4.58492,-4.47003 9.47713,-5.52358 3.93228,-0.84682 4.09929,0.0732 1.12766,6.21174 -2.13976,4.42015 -2.17792,6.43933 -0.31175,16.49728 0.38267,2.0625 0.2994,3.74574 -0.18507,3.74054 -0.48446,-0.005 -2.83374,-1.1798 -5.22062,-2.61022 z M 634.96938,227.47483 C 630.53047,226.09591 622,219.78496 622,217.87992 c 0,-0.53032 1.95204,0.17974 4.33786,1.57793 8.33912,4.88705 15.57641,2.493 15.74351,-5.20785 0.0498,-2.29692 1.39547,-6.07492 3.47271,-9.75 1.86523,-3.3 4.08466,-7.4625 4.93205,-9.25 1.20961,-2.55156 2.15622,-3.25 4.40485,-3.25 1.57527,0 3.39626,-0.64118 4.04664,-1.42484 1.49209,-1.79785 2.50856,-18.60457 1.23686,-20.45056 -0.60357,-0.87613 -3.62048,-1.53815 -8.311,-1.82375 C 643.75399,167.80709 639,166.41484 639,164.53367 c 0,-0.67303 -0.86965,-2.01072 -1.93256,-2.97264 -1.06291,-0.96192 -1.69682,-2.36329 -1.40868,-3.11415 0.71933,-1.87455 -5.37957,-5.43848 -9.31476,-5.44314 -2.8655,-0.003 -3.30272,0.42687 -4.75,4.6744 -1.91416,5.61775 -1.9595,9.5517 -0.16795,14.57186 1.28939,3.61302 1.25674,3.75 -0.89385,3.75 -1.22767,0 -4.05511,-1.32057 -6.28321,-2.93459 -3.29069,-2.38377 -4.18571,-3.74461 -4.76829,-7.25 -0.81446,-4.90064 -2.62177,-8.85767 -4.91476,-10.76069 C 602.29351,153.16878 602.64269,152 605.47856,152 c 2.28717,0 2.38976,-0.1949 1.32856,-2.52398 -2.38089,-5.22549 -9.88327,-3.93135 -12.42113,2.1426 -1.39971,3.34999 -1.36,4.10591 0.51258,9.75636 1.11641,3.36876 2.41256,7.47502 2.88033,9.12502 0.46777,1.65 1.83387,3.44421 3.03579,3.98713 2.57825,1.16462 2.79202,2.76446 0.61121,4.57436 -1.35374,1.12351 -2.15011,0.63251 -5.68888,-3.5075 -5.45783,-6.38511 -8.89175,-7.73945 -17.57674,-6.93227 -6.38904,0.5938 -6.97627,0.47908 -8.47091,-1.65481 C 567.84859,164.33882 568.29171,163 571.00231,163 c 1.03636,0 2.52572,-0.91579 3.30971,-2.03508 1.21559,-1.7355 1.22911,-2.94995 0.0918,-8.25 -1.70447,-7.9433 -1.72434,-17.70936 -0.0406,-19.92561 1.81422,-2.38792 6.48382,-3.9818 9.6367,-3.28931 3.28313,0.7211 8,-0.96437 8,-2.85862 0,-1.673 -3.00463,-2.60531 -8.5,-2.63749 -4.46628,-0.0262 -13.07519,-3.67896 -15.73812,-6.67777 -0.95597,-1.07655 -2.02112,-3.3723 -2.36699,-5.10167 -0.52138,-2.60692 -0.12539,-3.64779 2.31693,-6.09011 9.52254,-9.522545 33.97335,-5.75644 58.50469,9.01134 10.93828,6.5848 10.30406,4.04465 -1.96651,-7.87614 C 611.82509,95.19881 611.88123,95.325755 614.53435,85.29879 615.37825,82.109456 616.55516,74.775 617.14972,69 c 1.41789,-13.772207 2.23999,-15.818353 7.27408,-18.104744 15.83282,-7.190967 55.51859,5.490238 76.12781,24.325906 10.61693,9.703277 19.37305,24.670351 19.42465,33.203108 0.0222,3.67331 -0.63718,4.56863 -10.31089,14 -6.75469,6.58547 -12.49152,13.36655 -16.56117,19.57573 l -6.22653,9.5 3.18085,2.67274 c 1.90573,1.60132 6.40214,3.54195 11.21653,4.84101 4.41963,1.19254 8.56609,2.3718 9.21437,2.62056 0.70323,0.26986 1.14478,-0.46017 1.09463,-1.80979 -0.14379,-3.86988 3.00516,-3.20254 10.04869,2.12955 5.76995,4.36796 11.23108,10.77326 11.33605,13.29593 0.0172,0.4125 -1.93869,0.75 -4.34635,0.75 -4.41889,0 -7.40664,-1.92212 -6.14951,-3.9562 0.35481,-0.57409 0.004,-1.0438 -0.77905,-1.0438 -0.78329,0 -2.5751,-0.90533 -3.9818,-2.01184 l -2.55764,-2.01183 -3.46767,2.04597 c -4.65467,2.74633 -11.97866,3.47958 -20.31155,2.03353 -13.64002,-2.36703 -19.14501,-6.23816 -27.80963,-19.55583 -6.42991,-9.88288 -13.55485,-16.39699 -23.08778,-21.10842 -8.66247,-4.28122 -11.7869,-4.08999 -5.42555,0.33207 5.82954,4.05237 10.29306,8.93181 17.52258,19.15535 6.64556,9.39775 13.88255,16.39053 20.08677,19.40897 l 4.16162,2.02468 -0.55,5.59367 c -0.77126,7.84395 -3.69753,15.14636 -8.11101,20.24077 -6.58002,7.59523 -18.89434,24.26989 -19.57969,26.5126 -1.3742,4.49689 -6.65466,5.97676 -13.61315,3.81514 z m -31.2036,-19.39757 C 605.56195,206.38477 607.62971,205 608.36079,205 c 1.46975,0 5.23138,3.74116 4.49851,4.47403 -0.25398,0.25398 -3.13872,0.73599 -6.41054,1.07114 L 600.5,211.15453 Z M 725.09689,197 c -0.0727,-2.74371 1.44085,-5.79559 2.39907,-4.83737 0.33259,0.33259 -0.0562,2.11956 -0.86405,3.97104 -1.35466,3.10481 -1.47391,3.17212 -1.53502,0.86633 z M 626,190.04899 c 0,-1.32076 0.87397,-2.23024 2.54657,-2.65003 3.69506,-0.92741 3.84967,-0.068 0.44113,2.45201 -2.92744,2.16435 -2.9877,2.16835 -2.9877,0.19802 z"
       id="path786"
       sodipodi:nodetypes="csscccssssssscssssscsssssssssssssssssssssssccssssssssscssssssssssssssssssssssssssssssscssssssssssssssssssssssssssssssssssssssscsscssssssssscsccssssssssscsssssssssscsssscssssssssssssssssssssssssssssscscccssssssssssssssssssssscccsssssssssssssscsssssssssssssssssssssssssssssssssssssssssssssssssscssssssscssscsssssssscssssssscssssssssssssssssssscsssssssssssssscssssssssssssssssssssssssssssssssssssssssssssscsscsssssssssssscsssssscssssssssssssssssssssssscssssssssssssssssssssssssscscssssssscssssssssssssssssssssscsssssssssssssscssssssssssssssssssssssssssssssssssscsssssssssscssssssscsssssssscsssssssss" />
  </g>
</svg>
